<?xml version="1.0" encoding="UTF-8"?>
<svg version="1.1" xmlns="http://www.w3.org/2000/svg" width="512" height="512">
<path d="M0 0 C12.36111972 7.65223458 22.63349008 20.57654989 32.796875 30.82666016 C35.96576546 34.02235154 39.13810679 37.21456082 42.3125 40.40478516 C43.02102112 41.12160461 43.72954224 41.83842407 44.45953369 42.57696533 C47.79013779 45.92371495 51.15050128 49.12129753 54.76733398 52.15820312 C57.27463174 54.30018282 59.14612897 56.26431988 60.88208008 59.06445312 C63.74730028 63.39855771 66.74799629 66.43362605 71.546875 68.57666016 C82.71555657 70.74257193 94.37832999 70.0346585 105.69665527 69.75799561 C112.36164869 69.61003782 119.02869356 69.58741851 125.69501686 69.54604721 C128.00326609 69.5225362 130.30967283 69.47300996 132.61735535 69.41775513 C144.44134486 69.1961344 154.27989657 70.69440264 163.546875 78.57666016 C172.3907063 88.07702041 173.73701007 98.03495817 173.796875 110.57666016 C173.8278125 112.19701172 173.8278125 112.19701172 173.859375 113.85009766 C173.86453125 114.89423828 173.8696875 115.93837891 173.875 117.01416016 C173.8843457 117.96162109 173.89369141 118.90908203 173.90332031 119.88525391 C173.47817733 123.09537465 172.43584647 124.96912073 170.546875 127.57666016 C167.69363063 129.00328234 165.71232951 128.88699883 162.546875 128.57666016 C159.88671875 127.29541016 159.88671875 127.29541016 157.546875 124.57666016 C156.83694567 120.6473472 156.89333247 116.74822117 156.921875 112.76416016 C156.9436783 100.89367846 156.9436783 100.89367846 151.234375 90.76416016 C146.83780915 87.18556005 142.47375832 86.32725578 136.8930521 86.32218456 C135.7846697 86.31635237 134.6762873 86.31052018 133.53431755 86.30451125 C131.72338589 86.31018023 131.72338589 86.31018023 129.87586975 86.31596375 C128.58527962 86.3121382 127.29468948 86.30831265 125.96499056 86.30437118 C122.38913298 86.29408952 118.81337565 86.29627341 115.23750985 86.30055177 C111.37853865 86.30301867 107.51959162 86.2940053 103.66062927 86.28651428 C96.10316489 86.2737645 88.54573604 86.27197392 80.98826272 86.27431455 C74.8457268 86.27609746 68.70320167 86.27434863 62.56066704 86.2700901 C61.24939681 86.26919732 61.24939681 86.26919732 59.91163627 86.2682865 C58.1357536 86.26707475 56.35987092 86.26586062 54.58398824 86.26464412 C37.92968577 86.25376762 21.27540355 86.25593167 4.62109994 86.26202897 C-10.61541803 86.26719888 -25.85187208 86.25594094 -41.08837741 86.23693075 C-56.7336289 86.21756022 -72.37885015 86.20929493 -88.02411371 86.213054 C-96.80759539 86.21496716 -105.59102265 86.21246732 -114.37449455 86.19833946 C-121.8514748 86.18643473 -129.32836713 86.1850106 -136.80534857 86.19712963 C-140.61989155 86.20302456 -144.43427366 86.20410085 -148.248806 86.19212723 C-152.3843773 86.17929674 -156.51956457 86.18971813 -160.65513611 86.20243835 C-161.86019316 86.19506407 -163.06525021 86.18768978 -164.30682415 86.18009204 C-172.03685262 86.2302336 -177.14910587 86.86002221 -183.265625 91.88916016 C-195.60244215 107.04582123 -194.54243206 138.86150844 -196.015625 158.01416016 C-196.10131304 159.08832648 -196.10131304 159.08832648 -196.18873215 160.18419313 C-199.14845899 198.25435993 -193.25955972 228.61012078 -168.19100028 258.2818566 C-153.17949737 275.65204265 -136.75236649 291.64419934 -119.953125 307.26416016 C-119.14675551 308.01528375 -118.34038602 308.76640735 -117.50958109 309.54029226 C-96.37535031 329.20003101 -74.70180542 348.18945562 -52.453125 366.57666016 C-49.8952014 365.3044793 -47.33802426 364.03083471 -44.78125 362.75634766 C-43.70254639 362.22013794 -43.70254639 362.22013794 -42.60205078 361.6730957 C-38.75822444 359.75557548 -34.96022894 357.78586027 -31.203125 355.70166016 C-22.11751471 351.21212073 -13.10558613 350.77698823 -3.453125 353.57666016 C0.93602636 355.51770653 5.07308891 357.81650169 9.234375 360.20166016 C10.32943359 360.81267578 11.42449219 361.42369141 12.55273438 362.05322266 C15.22562835 363.547242 17.88963077 365.05503685 20.546875 366.57666016 C40.45636097 349.68953191 59.58667077 331.88230602 78.52851677 313.92574787 C86.16172228 306.70004097 93.85145281 299.56879033 101.74121094 292.62329102 C110.88874411 284.55065599 119.81999683 276.28857978 128.4765625 267.68994141 C129.52980792 266.64374563 129.52980792 266.64374563 130.60433102 265.57641459 C151.17532811 244.89623514 160.67591475 226.807348 161.02664185 197.3433075 C160.96251179 184.85132908 160.14788572 172.29497892 158.46393204 159.91474724 C158.37039007 159.17467043 158.27684811 158.43459361 158.18047154 157.67209023 C157.92353004 155.69229031 157.63263325 153.71697944 157.33914375 151.74226665 C157.546875 148.57666016 157.546875 148.57666016 159.8330822 146.17207813 C163.11269587 144.2440184 164.8037594 143.9395341 168.546875 144.57666016 C170.84963056 146.44375926 172.22511371 147.93313757 173.546875 150.57666016 C173.42940918 152.44245728 173.42940918 152.44245728 173.30957031 154.34594727 C172.92476299 161.61279356 172.89130621 168.04129116 177.54492188 173.97558594 C181.50475525 178.34259566 185.87848507 182.2460698 190.296875 186.13916016 C192.53448986 188.17747231 194.75816832 190.22892641 196.97003174 192.29515076 C198.33842183 193.56637316 199.72317376 194.82031656 201.12713623 196.05213928 C207.83910977 202.14801566 212.16812809 209.70765834 212.6745255 218.89174575 C212.675772 219.69247128 212.67701849 220.49319682 212.67830276 221.31818676 C212.68214391 222.24855824 212.68598505 223.17892971 212.6899426 224.13749427 C212.68907612 225.15110111 212.68820963 226.16470795 212.68731689 227.20903015 C212.69177358 228.83419224 212.69177358 228.83419224 212.6963203 230.49218589 C212.70500463 234.12931987 212.70651533 237.76642092 212.70800781 241.40356445 C212.71263618 244.00873383 212.71766086 246.61390253 212.72305298 249.21907043 C212.73662201 256.30186282 212.74265885 263.38464954 212.74706364 270.46745276 C212.74982859 274.89232805 212.75406642 279.31720115 212.75856781 283.74207497 C212.77075883 295.99987367 212.78105833 308.25767064 212.7844429 320.51547527 C212.78466247 321.29966864 212.78488203 322.08386201 212.78510825 322.89181881 C212.78532653 323.67785988 212.78554481 324.46390095 212.7857697 325.27376145 C212.78621316 326.86650829 212.78665973 328.45925512 212.78710938 330.05200195 C212.7873308 330.84205487 212.78755223 331.63210779 212.78778037 332.4461017 C212.79172692 345.24277689 212.80917732 358.03939509 212.8324689 370.83604827 C212.85620404 383.98282138 212.86864574 397.12956593 212.86981082 410.27636081 C212.87072639 417.6542956 212.87644883 425.03215613 212.89463043 432.41007042 C212.91167646 439.35151175 212.91326788 446.29281013 212.90449142 453.23426628 C212.9037209 455.77952705 212.90806575 458.32479538 212.91794968 460.87003708 C212.93066892 464.34998274 212.92479193 467.82942951 212.91436768 471.30937195 C212.92645228 472.8130518 212.92645228 472.8130518 212.93878102 474.34710902 C212.86324678 485.16068453 210.25738961 493.80671961 202.546875 501.57666016 C194.92298729 507.76858287 188.07464844 509.87980891 178.3762207 509.85131836 C177.47308136 509.85642929 176.56994202 509.86154022 175.63943481 509.86680603 C172.66710713 509.88065818 169.69501229 509.87974931 166.72265625 509.87744141 C164.6533347 509.8813292 162.58401394 509.88566404 160.51469421 509.89042664 C156.1848186 509.89787827 151.85502455 509.89760408 147.52514648 509.89233398 C141.96979508 509.88652423 136.41477545 509.90351181 130.85947895 509.92667866 C126.58990012 509.94138558 122.3204019 509.94229214 118.05080223 509.93916893 C116.00182625 509.93968313 113.95284587 509.94493931 111.90389442 509.95498085 C109.04548916 509.96727632 106.18773995 509.96059644 103.3293457 509.94897461 C102.47993912 509.95661835 101.63053253 509.96426208 100.75538635 509.97213745 C94.97773534 509.9200451 94.97773534 509.9200451 92.86087322 508.23295879 C90.875606 505.7305236 90.67327878 503.73675476 90.546875 500.57666016 C91.68467372 498.24934459 92.71528214 496.40825302 94.546875 494.57666016 C97.15141523 494.46217686 99.73052235 494.41182152 102.33618164 494.40307617 C103.15253082 494.39638916 103.96888 494.38970215 104.80996704 494.3828125 C106.58987475 494.36872506 108.36980092 494.3568429 110.1497364 494.3468647 C112.97069532 494.33048708 115.79151919 494.3072467 118.6124115 494.28196716 C126.63566364 494.21112987 134.65897349 494.15126069 142.68237305 494.09985352 C147.58544806 494.06795538 152.48837249 494.02664246 157.391325 493.97965813 C159.25750436 493.96369074 161.12371848 493.95134501 162.98994637 493.94275093 C165.61072056 493.93051637 168.23114526 493.90632974 170.85180664 493.87963867 C171.61628616 493.87904953 172.38076569 493.87846039 173.16841125 493.87785339 C179.33238241 493.79520003 185.05745656 493.09195834 190.421875 489.82666016 C192.897064 487.2058718 193.51240933 484.98760101 194.546875 481.57666016 C193.81911865 481.19034424 193.0913623 480.80402832 192.34155273 480.40600586 C179.83559441 473.75899528 167.34620854 467.10107351 155.046875 460.07666016 C146.51617134 455.20628318 137.90255029 450.50862786 129.234375 445.88916016 C119.48000543 440.68988253 109.77784102 435.41204294 100.13037109 430.01708984 C94.56975407 426.91676472 88.99558434 423.84086572 83.421875 420.76416016 C82.79994263 420.42077606 82.17801025 420.07739197 81.53723145 419.72360229 C72.00426108 414.46218466 62.44204661 409.25702119 52.86157227 404.08251953 C45.74735608 400.23667447 38.66927305 396.3305023 31.60546875 392.39306641 C25.53650678 389.01100978 19.45886035 385.64468315 13.37826538 382.28359985 C12.08969407 381.57098316 10.80145695 380.85776177 9.51358032 380.14389038 C-2.81697843 372.30152153 -2.81697843 372.30152153 -16.453125 368.57666016 C-22.27960433 370.52712864 -27.60694615 373.05670267 -33.015625 375.95166016 C-34.24164429 376.6019519 -34.24164429 376.6019519 -35.49243164 377.26538086 C-42.82539531 381.18278355 -50.04852265 385.28769272 -57.26977539 389.40625 C-64.92999478 393.75843204 -72.674831 397.94069566 -80.453125 402.07666016 C-89.01835065 406.63180884 -97.52811597 411.26586219 -105.953125 416.07666016 C-114.48387101 420.94696251 -123.09744831 425.6446917 -131.765625 430.26416016 C-141.51999457 435.46343779 -151.22215898 440.74127738 -160.86962891 446.13623047 C-166.43024578 449.23655551 -172.00440479 452.31247454 -177.578125 455.38916016 C-178.19706635 455.73088257 -178.81600769 456.07260498 -179.45370483 456.42468262 C-189.14438905 461.77294378 -198.86030864 467.07305027 -208.60205078 472.32788086 C-214.24185834 475.37076545 -219.8596235 478.44941553 -225.453125 481.57666016 C-224.39123032 486.65015696 -222.55712567 488.72084317 -218.5 491.59619141 C-212.57081782 494.43631493 -205.50058423 493.72107446 -199.0839386 493.71469116 C-197.93345053 493.71751244 -196.78296247 493.72033372 -195.59761113 493.72324049 C-192.41310849 493.73012322 -189.22863717 493.73261154 -186.0441283 493.73329163 C-182.60650982 493.73513579 -179.16890383 493.7427449 -175.73129272 493.74977112 C-169.77765879 493.76128217 -163.82402766 493.76953384 -157.87038612 493.77589035 C-148.46388002 493.78622405 -139.05740914 493.80678778 -129.65092468 493.82901001 C-126.43218338 493.83648898 -123.21344193 493.84390276 -119.99470043 493.85129738 C-118.78825195 493.85407323 -118.78825195 493.85407323 -117.55743078 493.85690515 C-108.40800088 493.87782014 -99.25856713 493.89665625 -90.10913086 493.91455078 C-89.27294805 493.91618896 -88.43676524 493.91782715 -87.57524356 493.91951497 C-74.00765176 493.94583202 -60.44005724 493.96445952 -46.87245069 493.98114268 C-32.94481128 493.99854545 -19.01722548 494.02736745 -5.08962888 494.06603205 C3.50328761 494.08945918 12.09611675 494.10342904 20.68906543 494.10535969 C26.57180613 494.10746435 32.45445975 494.12035381 38.33716138 494.14183901 C41.73399755 494.15389984 45.13066082 494.16099831 48.52751732 494.15512657 C52.20474985 494.15126008 55.88146519 494.16559493 59.55863953 494.18466187 C60.63916475 494.17913217 61.71968998 494.17360247 62.8329584 494.16790521 C63.81406551 494.17674505 64.79517262 494.1855849 65.80601025 494.19469261 C66.65522995 494.19604914 67.50444966 494.19740567 68.37940329 494.19880331 C71.05900738 494.66594055 71.91749653 495.43268048 73.546875 497.57666016 C74.66990633 501.26662025 74.88426347 502.88654738 73.171875 506.38916016 C71.546875 508.57666016 71.546875 508.57666016 70.546875 509.57666016 C69.01333368 509.67714093 67.47516661 509.70772944 65.93834019 509.71088123 C64.93581481 509.71533908 63.93328942 509.71979692 62.90038449 509.72438985 C61.78563447 509.72420549 60.67088445 509.72402113 59.52235413 509.72383118 C58.34840873 509.72750786 57.17446333 509.73118455 55.96494383 509.73497266 C52.69144821 509.74412147 49.41798205 509.74871403 46.14447582 509.75136197 C42.61938052 509.75525691 39.09429986 509.76483612 35.56921387 509.77357483 C27.04596513 509.7933674 18.52271515 509.80341126 9.99944916 509.81230262 C5.98655965 509.81668298 1.97367147 509.82205063 -2.039217 509.82729149 C-15.37944102 509.84431037 -28.71966421 509.85880289 -42.05989742 509.86604023 C-45.52438801 509.86795018 -48.98887858 509.86987049 -52.45336914 509.87182617 C-53.3144682 509.87230991 -54.17556727 509.87279365 -55.06276024 509.87329205 C-69.00104649 509.88158601 -82.93924674 509.90690924 -96.87749546 509.93940685 C-111.18579415 509.97249516 -125.49404919 509.99049079 -139.80238634 509.99368447 C-147.83656773 509.99584847 -155.8706239 510.00458041 -163.90476799 510.03014565 C-170.75011836 510.05187729 -177.59531313 510.05989119 -184.44069409 510.05017886 C-187.9315959 510.04564056 -191.42217684 510.04749224 -194.91303444 510.06694031 C-198.70421013 510.0846303 -202.49457504 510.07756578 -206.28575134 510.06440735 C-207.92776163 510.08086122 -207.92776163 510.08086122 -209.60294384 510.09764749 C-219.48153395 510.01502807 -227.43516654 507.41809774 -234.69921875 500.56494141 C-243.13077314 491.00667596 -243.75096376 480.72874823 -243.71191406 468.53491211 C-243.71462706 467.11181459 -243.71818973 465.68871847 -243.72253418 464.265625 C-243.73162122 460.41668485 -243.72812986 456.56785239 -243.72177601 452.71891046 C-243.71669986 448.68623589 -243.72141167 444.65357033 -243.72454834 440.62089539 C-243.72818202 433.85312245 -243.72340327 427.08539324 -243.71386719 420.31762695 C-243.70297058 412.49394814 -243.70651934 404.67037347 -243.71752 396.84669715 C-243.72659417 390.12382246 -243.72787791 383.40097912 -243.72264266 376.67810029 C-243.71952537 372.66506027 -243.71910727 368.65206923 -243.72571564 364.63903236 C-243.73149083 360.86905407 -243.7274891 357.09921028 -243.71592712 353.32924652 C-243.71328203 351.9457363 -243.71404308 350.56221476 -243.71845245 349.17870903 C-243.72391463 347.29092182 -243.71585161 345.40310987 -243.70709229 343.51533508 C-243.70633823 342.45883412 -243.70558418 341.40233316 -243.70480728 340.31381702 C-243.44928441 337.53489199 -242.94177211 335.91410755 -241.453125 333.57666016 C-238.77679474 331.49506996 -237.33558832 331.58078425 -233.890625 331.70166016 C-230.453125 332.57666016 -230.453125 332.57666016 -228.76320171 334.30231857 C-227.1910014 337.03171641 -227.0700265 338.70283896 -227.05439758 341.84112549 C-227.03559036 343.43964859 -227.03559036 343.43964859 -227.0164032 345.07046509 C-227.01855583 346.81618301 -227.01855583 346.81618301 -227.02075195 348.59716797 C-227.0105603 349.82670197 -227.00036865 351.05623596 -226.98986816 352.32302856 C-226.96485465 355.69057988 -226.9530129 359.05769503 -226.94701409 362.42530155 C-226.93763218 365.94609837 -226.91142898 369.46676896 -226.88700867 372.98748779 C-226.84333483 379.6526146 -226.81479337 386.31771692 -226.79168528 392.9829433 C-226.7646383 400.57183968 -226.72072652 408.16060915 -226.67539656 415.74941492 C-226.58253766 431.35843143 -226.5108627 446.96747184 -226.453125 462.57666016 C-222.67510634 460.56124046 -218.89810323 458.54393288 -215.12194824 456.52502441 C-213.84275229 455.8414253 -212.56330119 455.15830336 -211.28356934 454.47570801 C-203.11073593 450.11590145 -194.99479803 445.6756456 -186.953125 441.07666016 C-178.41933068 436.21162309 -169.8089241 431.50869384 -161.140625 426.88916016 C-151.38625543 421.68988253 -141.68409102 416.41204294 -132.03662109 411.01708984 C-126.47600372 407.91676453 -120.90180986 404.84091068 -115.328125 401.76416016 C-114.70984833 401.42277008 -114.09157166 401.08138 -113.45455933 400.72964478 C-103.70606699 395.34883576 -93.93133676 390.01872731 -84.12841797 384.73754883 C-83.21721191 384.24617432 -82.30600586 383.7547998 -81.3671875 383.24853516 C-80.0992334 382.56500977 -80.0992334 382.56500977 -78.80566406 381.86767578 C-76.65233884 380.68598382 -74.53147074 379.46179376 -72.4140625 378.21728516 C-69.453125 376.57666016 -69.453125 376.57666016 -67.453125 376.57666016 C-72.86116919 370.18304706 -78.65034516 364.23708365 -84.57592773 358.32446289 C-85.57895166 357.32008089 -86.58176339 356.31548696 -87.5843811 355.31069946 C-90.28663987 352.60391464 -92.99201267 349.90026311 -95.69812655 347.1973331 C-98.54261201 344.35539635 -101.38463754 341.51100122 -104.22706604 338.66700745 C-108.99894679 333.8933123 -113.77292078 329.12171815 -118.5480957 324.35131836 C-124.05255134 318.85230393 -129.55339553 313.34969657 -135.05237812 307.84520954 C-139.7913088 303.10172691 -144.53220289 298.36021325 -149.27471501 293.62031132 C-152.09953041 290.79704726 -154.92368417 287.97313024 -157.74606133 285.14742851 C-160.40076453 282.48981626 -163.05794106 279.83470101 -165.71696854 277.18141556 C-167.14596895 275.75434736 -168.57253798 274.32484576 -169.99900818 272.89524841 C-174.45682999 268.45191618 -178.97423719 264.15822262 -183.74847698 260.05657864 C-185.93061132 258.16212248 -187.98209189 256.16080031 -190.01733398 254.11010742 C-190.81433212 253.30980606 -191.61133026 252.5095047 -192.43247986 251.68495178 C-193.26300369 250.84612961 -194.09352753 250.00730743 -194.94921875 249.14306641 C-196.26044456 247.82616066 -196.26044456 247.82616066 -197.59815979 246.48265076 C-200.36476606 243.70391235 -203.12808476 240.92194055 -205.890625 238.13916016 C-209.55299997 234.44998001 -213.21893069 230.76436515 -216.88671875 227.08056641 C-217.7314122 226.22757462 -218.57610565 225.37458282 -219.44639587 224.4957428 C-220.60879539 223.32838844 -220.60879539 223.32838844 -221.79467773 222.13745117 C-222.82104591 221.10322777 -222.82104591 221.10322777 -223.8681488 220.04811096 C-225.21481751 218.46326458 -225.21481751 218.46326458 -226.453125 218.57666016 C-226.45677063 219.72036072 -226.46041626 220.86406128 -226.46417236 222.04241943 C-226.50109175 232.81356222 -226.55883092 243.58441831 -226.63702774 254.35534286 C-226.67655991 259.89299466 -226.70872025 265.43048606 -226.72412109 270.96826172 C-226.73924982 276.3111889 -226.77362807 281.6536753 -226.82143402 286.99640656 C-226.83628691 289.03613711 -226.84416824 291.07593057 -226.84500885 293.11571503 C-226.8473685 295.97003843 -226.87436714 298.82313375 -226.90722656 301.67724609 C-226.9021962 302.52313293 -226.89716583 303.36901978 -226.89198303 304.24053955 C-226.99418725 309.96752676 -226.99418725 309.96752676 -229.3348999 313.07427979 C-231.85824142 314.86399456 -233.35099388 315.50099842 -236.453125 315.57666016 C-239.93947101 313.95510387 -241.29614694 312.81212724 -243.453125 309.57666016 C-243.65338706 306.63904965 -243.73641715 303.79599944 -243.7277832 300.85766602 C-243.73289413 299.9662088 -243.73800507 299.07475159 -243.74327087 298.15628052 C-243.75719912 295.20128711 -243.75620665 292.24652631 -243.75390625 289.29150391 C-243.75779348 287.23466404 -243.7621282 285.17782497 -243.76689148 283.12098694 C-243.77436215 278.80255538 -243.77405779 274.48420555 -243.76879883 270.16577148 C-243.76302522 264.65025645 -243.77987996 259.13507953 -243.8031435 253.61962032 C-243.8179336 249.36690841 -243.81874499 245.11427673 -243.81563377 240.86154366 C-243.81614507 238.82951759 -243.82134656 236.7974868 -243.83144569 234.76548576 C-243.84388504 231.9105786 -243.83697205 229.05631414 -243.82543945 226.20141602 C-243.83308319 225.37246323 -243.84072693 224.54351044 -243.84860229 223.68943787 C-243.77481216 215.35840931 -241.89351149 207.24316723 -236.61181641 200.63574219 C-234.3898828 198.51633617 -232.02505841 196.87502027 -229.45727539 195.20094299 C-218.37702346 187.88763122 -207.54020187 179.27804506 -204.61956787 165.70202637 C-201.91573242 147.40980188 -203.05199366 128.18440037 -204.20524597 109.79342651 C-204.88383001 98.04724358 -203.22560122 88.71457139 -195.453125 79.57666016 C-187.59610359 72.26260364 -179.16517585 69.30977918 -168.48583984 69.67285156 C-167.07191724 69.71558702 -165.65796468 69.75733982 -164.24398804 69.79824829 C-163.12624056 69.83202009 -163.12624056 69.83202009 -161.98591232 69.86647415 C-157.14922552 69.99510356 -152.31086599 70.03639419 -147.47284508 70.08780861 C-143.2458205 70.1374704 -139.02512358 70.22086669 -134.80078125 70.38232422 C-114.42034297 71.80174263 -114.42034297 71.80174263 -96.16113281 64.48193359 C-92.02513715 60.63784818 -88.58726016 56.42285796 -85.25787354 51.87490845 C-82.9626615 48.95208178 -80.35597646 46.70552084 -77.51034546 44.33493042 C-73.66103241 41.04499003 -70.18483651 37.36808885 -66.640625 33.75634766 C-64.97164586 32.06986102 -63.30236595 30.38367199 -61.6328125 28.69775391 C-59.03603 26.0699988 -56.44166122 23.43999189 -53.85253906 20.8046875 C-51.33040192 18.24005316 -48.79876963 15.68510405 -46.265625 13.13134766 C-45.50080811 12.34790985 -44.73599121 11.56447205 -43.94799805 10.7572937 C-32.51844484 -0.72602167 -15.82553338 -7.9794079 0 0 Z M-39.12109375 28.95166016 C-40.12835001 29.964527 -41.13628205 30.9767222 -42.14485168 31.98828125 C-44.78157582 34.63637815 -47.40917177 37.29335 -50.03485107 39.95239258 C-52.70202104 42.65028026 -55.37771073 45.33968839 -58.05273438 48.02978516 C-62.76174395 52.76738223 -67.46326967 57.51227527 -72.15934753 62.26269531 C-74.58328376 64.70796444 -77.01849896 67.14203411 -79.453125 69.57666016 C-37.213125 69.57666016 5.026875 69.57666016 48.546875 69.57666016 C45.87076501 66.23152267 44.01462993 63.94703172 40.87719727 61.3449707 C36.0803525 57.23812525 31.68473023 52.78610906 27.26171875 48.28369141 C25.49703503 46.50150293 23.73205213 44.71961066 21.96679688 42.93798828 C19.21630708 40.1564918 16.46822526 37.3727389 13.7253418 34.58374023 C11.05675364 31.87275194 8.3787477 29.17136051 5.69921875 26.47119141 C4.47863014 25.22267143 4.47863014 25.22267143 3.23338318 23.94892883 C-3.87113539 16.81251264 -3.87113539 16.81251264 -13.04296875 13.01025391 C-14.20505859 13.0121875 -14.20505859 13.0121875 -15.390625 13.01416016 C-16.16277344 12.99224609 -16.93492187 12.97033203 -17.73046875 12.94775391 C-26.63482953 15.00457182 -32.96934183 22.69756614 -39.12109375 28.95166016 Z M-207.95703125 194.98291016 C-208.9790931 196.01165215 -209.99850464 197.04303222 -211.015625 198.07666016 C-211.53576172 198.60130859 -212.05589844 199.12595703 -212.59179688 199.66650391 C-213.88114191 200.96767779 -215.1674187 202.27189067 -216.453125 203.57666016 C-212.61179597 207.5343931 -208.68097333 210.95279016 -204.453125 214.57666016 C-204.453125 207.31666016 -204.453125 200.05666016 -204.453125 192.57666016 C-205.91173564 192.46117576 -205.91173564 192.46117576 -207.95703125 194.98291016 Z M173.546875 192.57666016 C173.546875 199.83666016 173.546875 207.09666016 173.546875 214.57666016 C177.77472333 210.95279016 181.70554597 207.5343931 185.546875 203.57666016 C183.73734909 201.74030438 181.92446862 199.90749808 180.109375 198.07666016 C179.59310547 197.55201172 179.07683594 197.02736328 178.54492188 196.48681641 C177.23110713 195.16441463 175.89093995 193.86830448 174.546875 192.57666016 C174.216875 192.57666016 173.886875 192.57666016 173.546875 192.57666016 Z M194.546875 217.57666016 C193.96329224 218.16246353 193.37970947 218.74826691 192.77844238 219.3518219 C187.25021224 224.90017584 181.71951455 230.446056 176.18610382 235.98924351 C173.3421261 238.83841668 170.49907643 241.68850266 167.65820312 244.54077148 C164.91124566 247.29867735 162.1617783 250.05405876 159.41062927 252.80778313 C158.36689924 253.85334604 157.32404243 254.89978148 156.28211975 255.94714546 C154.8108997 257.42573514 153.33646641 258.9010531 151.86132812 260.37573242 C151.02637817 261.21290298 150.19142822 262.05007355 149.33117676 262.91261292 C147.21262417 264.93966482 145.07756395 266.86025646 142.85668945 268.76882935 C137.77041002 273.1867657 133.03625734 277.93968168 128.27539062 282.70288086 C127.26949394 283.70577895 126.26339477 284.70847399 125.2571106 285.71098328 C122.54864561 288.41068586 119.8433637 291.11355566 117.13895607 293.81732202 C115.44829335 295.50727102 113.7569194 297.19650482 112.06529236 298.88548851 C106.16242753 304.77913315 100.26211944 310.67532329 94.36425781 316.57397461 C88.86552829 322.07330746 83.36121641 327.56700931 77.85432291 333.05816585 C73.1202817 337.77915946 68.3900753 342.50397189 63.66287374 347.23181409 C60.84167678 350.0532664 58.01893738 352.87313278 55.19233704 355.68917274 C52.54163148 358.33024153 49.89571008 360.97600887 47.25347519 363.62555122 C46.28123522 364.59884182 45.30726943 365.57041182 44.33150101 366.54016495 C43.00485941 367.85915278 41.68490412 369.1848558 40.36535645 370.51094055 C39.62356392 371.25218831 38.88177139 371.99343607 38.11750031 372.75714588 C36.32906315 374.4283805 36.32906315 374.4283805 36.546875 376.57666016 C37.65160156 377.14771484 38.75632812 377.71876953 39.89453125 378.30712891 C48.85307412 382.96588419 57.71443994 387.75889509 66.484375 392.76416016 C75.20348273 397.73717083 84.00148809 402.54458958 92.859375 407.26416016 C102.61386732 412.46320535 112.31591282 417.74127952 121.96337891 423.13623047 C127.52399593 426.23655559 133.09816566 429.31245459 138.671875 432.38916016 C139.29380737 432.73254425 139.91573975 433.07592834 140.55651855 433.42971802 C150.0687959 438.6797148 159.60833735 443.87722495 169.1706543 449.03564453 C176.24330639 452.85537163 183.2787011 456.73806219 190.28198242 460.68359375 C193.25021311 462.67797545 193.25021311 462.67797545 196.546875 463.57666016 C196.546875 382.72666016 196.546875 301.87666016 196.546875 218.57666016 C195.556875 218.08166016 195.556875 218.08166016 194.546875 217.57666016 Z " fill="#000000" transform="translate(271.453125,2.42333984375)"/>
<path d="M0 0 C13.63005993 11.64980393 23.39731927 27.65437099 25.82421875 45.54296875 C27.08694434 62.4412083 24.67276643 80.59129449 13.33984375 93.97265625 C6.11146959 101.51081787 -0.91939001 104.5376531 -11.375 105.08984375 C-17.54710284 104.86967361 -22.31705131 103.18512044 -26.83203125 98.921875 C-28.54227598 96.99613944 -30.13813716 95.04905315 -31.66015625 92.97265625 C-32.61921875 93.83890625 -32.61921875 93.83890625 -33.59765625 94.72265625 C-42.10275453 100.97129988 -50.12635026 102.38440345 -60.66015625 100.97265625 C-71.43885522 97.53050763 -78.84201355 90.88456804 -84.03515625 80.97265625 C-89.80258315 69.11559983 -90.57932892 55.58057354 -87.03515625 42.91015625 C-85.07797036 37.42730796 -82.66182063 33.1891751 -78.66015625 28.97265625 C-78.01175781 28.27269531 -77.36335938 27.57273438 -76.6953125 26.8515625 C-69.7481767 20.00492776 -61.82702795 16.91679305 -52.09765625 16.47265625 C-46.66378816 16.67039526 -38.67086778 17.96194472 -34.66015625 21.97265625 C-34.28890625 20.33296875 -34.28890625 20.33296875 -33.91015625 18.66015625 C-32.66015625 14.97265625 -32.66015625 14.97265625 -30.97265625 12.97265625 C-27.55247617 11.49365946 -25.21561146 12.06763129 -21.66015625 12.97265625 C-19.60077409 14.55151591 -18.81444414 15.66408048 -17.66015625 17.97265625 C-17.58416108 19.90707978 -17.57396157 21.84421977 -17.59423828 23.7800293 C-17.60887619 25.60784187 -17.60887619 25.60784187 -17.62380981 27.47257996 C-17.63117283 28.1258898 -17.63853584 28.77919964 -17.64612198 29.45230675 C-17.66813774 31.50009314 -17.68222287 33.54778695 -17.69381714 35.59565735 C-17.727406 41.41896247 -17.76878845 47.24211593 -17.83154297 53.06518555 C-17.8693594 56.62715579 -17.89226757 60.18896676 -17.90584946 63.75110817 C-17.91775129 65.76016675 -17.94592245 67.76910782 -17.97439575 69.77799988 C-18.03541415 78.80537485 -18.03541415 78.80537485 -14.66015625 86.97265625 C-11.59682928 88.32621933 -9.80716735 88.35499328 -6.6328125 87.296875 C0.12052253 84.24089658 2.93402094 80.34819181 5.52734375 73.47265625 C9.70694315 61.61658145 10.29707052 47.54114752 5.6796875 35.7265625 C2.87109151 29.95379232 -0.28344027 24.31589736 -4.87890625 19.78515625 C-6.66015625 17.97265625 -6.66015625 17.97265625 -6.66015625 15.97265625 C-7.22734375 15.71097656 -7.79453125 15.44929688 -8.37890625 15.1796875 C-10.84501795 13.87484415 -12.93062402 12.33602131 -15.16015625 10.66015625 C-27.56860771 1.90124934 -42.51775154 -2.06533096 -57.625 0.27734375 C-74.64224101 3.47828352 -87.80326605 11.64018414 -98.1328125 25.6640625 C-107.27390277 39.48090227 -110.50707472 55.52362676 -107.328125 71.8059082 C-103.6163818 87.94232514 -94.2886498 101.06686494 -80.31494141 109.91381836 C-71.18920619 115.28970159 -61.18970827 118.02331968 -50.65234375 118.6796875 C-47.41468498 119.15581379 -45.75344809 120.54173669 -43.66015625 122.97265625 C-42.19719148 126.44719759 -42.54740506 127.69346283 -43.97265625 131.22265625 C-45.66015625 133.97265625 -45.66015625 133.97265625 -47.66015625 134.97265625 C-65.21242948 136.82505879 -83.22107795 129.67180645 -97.03515625 119.16015625 C-113.25715247 105.17379648 -122.94079639 87.93999124 -125.44140625 66.63671875 C-126.73719929 44.93218532 -120.44297958 23.90562347 -106.00073242 7.42700195 C-78.13796917 -22.72169354 -32.12099667 -24.47987852 0 0 Z M-66.97265625 40.22265625 C-72.84869119 47.81186759 -73.63977045 55.52160562 -72.66015625 64.97265625 C-71.01358317 72.58805677 -67.93484654 78.25287824 -61.66015625 82.97265625 C-57.40229254 85.51198461 -53.50727147 85.63247298 -48.66015625 84.97265625 C-42.33245087 81.99491254 -38.25685804 76.39416009 -35.34765625 70.16015625 C-33.20204715 60.21233222 -32.67596595 50.63711825 -37.97265625 41.59765625 C-40.82959048 37.42602662 -43.80171062 34.59213813 -48.66015625 32.97265625 C-56.2719828 32.22639875 -61.8369501 34.66744935 -66.97265625 40.22265625 Z " fill="#000000" transform="translate(305.66015625,147.02734375)"/>
</svg>
