<svg width="141" height="54" viewBox="0 0 141 54" fill="none" xmlns="http://www.w3.org/2000/svg">
<path d="M34.8514 14.3206C34.8514 19.7382 38.0207 23.1836 43.7995 23.1836C49.462 23.1836 52.7052 19.7382 52.7052 14.3206C52.7052 8.89249 49.462 5.34083 43.7995 5.34083C38.0207 5.34083 34.8514 8.89249 34.8514 14.3206ZM37.5664 14.3206C37.5664 10.4297 39.7744 7.66262 43.7995 7.66262C47.7823 7.66262 49.9479 10.4297 49.9479 14.3206C49.9479 18.2008 47.7823 20.8619 43.7995 20.8619C39.7744 20.8619 37.5664 18.2008 37.5664 14.3206ZM58.2198 5.60591C57.7339 5.60591 57.7022 5.82852 57.7022 6.53886V21.8691C57.7022 22.7702 57.8818 22.9187 58.7481 22.9187H59.308C60.1637 22.9187 60.3116 22.7702 60.3116 21.8691V12.2214C60.5334 9.677 61.9069 7.62019 64.8965 7.62019C67.4637 7.62019 68.3617 9.45428 68.3617 11.8503V21.8691C68.3617 22.7702 68.5412 22.9187 69.4076 22.9187H69.9569C70.8232 22.9187 71.0027 22.7702 71.0027 21.8691V11.8079C71.3409 9.49671 72.7987 7.58839 75.5138 7.58839C77.9752 7.58839 79.0951 9.11504 79.0951 12.073V21.8691C79.0951 22.7702 79.2431 22.9187 80.0987 22.9187H80.6587C81.5566 22.9187 81.7045 22.7702 81.7045 21.8691V11.5535C81.7045 7.62018 79.9086 5.34083 76.0737 5.34083C73.2002 5.34083 71.457 6.76146 70.5591 8.55313C69.883 6.53885 68.3194 5.34083 65.71 5.34083C63.0266 5.34083 61.273 6.46464 60.3116 7.95949V7.6944C60.3116 6.24198 59.7095 5.60591 58.2198 5.60591ZM86.3951 18.1266C86.3951 21.4556 88.265 23.1413 92.1421 23.1413C95.6073 23.1413 97.4666 22.0917 98.4702 21.3495C98.5865 22.5476 99.2203 23.0671 100.594 23.0671C101.08 23.0671 101.122 22.8444 101.122 22.1342V11.6277C101.122 7.66262 98.4386 5.34083 93.7796 5.34083C92.026 5.34083 90.1667 5.63771 88.9728 6.08302C88.1171 6.39042 87.6628 6.80389 87.6628 7.91712C87.6628 8.44723 87.7791 8.52134 88.7405 8.25631C90.0082 7.91712 91.6879 7.58839 93.5578 7.58839C96.9489 7.58839 98.4702 9.23168 98.4702 11.9988V13.8329C96.6849 13.6103 94.6353 13.4936 93.0718 13.4936C88.6348 13.4936 86.3951 14.7234 86.3951 18.1266ZM92.7654 21.0103C90.4202 21.0103 89.0046 20.3001 89.0046 18.1266C89.0046 15.9215 90.7582 15.5927 93.5895 15.5927C94.9311 15.5927 96.9067 15.6245 98.4702 15.8897V19.2928C97.3927 20.1092 95.8608 21.0103 92.7654 21.0103ZM111.633 25.1238C110.102 29.2798 108.464 29.6508 107.27 29.6508C106.415 29.6508 105.96 29.46 105.559 29.2374C105.179 29.0889 104.957 29.2056 104.957 29.725C104.957 30.9972 105.886 31.7817 107.904 31.7817C110.619 31.7817 112.299 30.0219 114.095 25.5691L121.617 6.87811C122.029 5.82852 121.659 5.60591 121.131 5.60591H120.17C119.419 5.60591 119.229 5.68002 118.828 6.80388L113.493 20.4166L108.57 6.68724C108.2 5.68002 108.052 5.60591 107.154 5.60591H106.341C105.633 5.60591 105.443 5.90274 105.781 6.83568L111.517 22.2084C111.707 22.7702 111.887 22.9187 112.447 22.9187H112.489L111.633 25.1238ZM124.26 18.1266C124.26 21.4556 126.129 23.1413 130.006 23.1413C133.472 23.1413 135.331 22.0917 136.335 21.3495C136.451 22.5476 137.085 23.0671 138.458 23.0671C138.944 23.0671 138.986 22.8444 138.986 22.1342V11.6277C138.986 7.66262 136.303 5.34083 131.644 5.34083C129.89 5.34083 128.031 5.63771 126.837 6.08302C125.981 6.39042 125.527 6.80389 125.527 7.91712C125.527 8.44723 125.643 8.52134 126.605 8.25631C127.872 7.91712 129.552 7.58839 131.422 7.58839C134.813 7.58839 136.335 9.23168 136.335 11.9988V13.8329C134.549 13.6103 132.5 13.4936 130.936 13.4936C126.499 13.4936 124.26 14.7234 124.26 18.1266ZM130.63 21.0103C128.284 21.0103 126.869 20.3001 126.869 18.1266C126.869 15.9215 128.623 15.5927 131.454 15.5927C132.795 15.5927 134.771 15.6245 136.335 15.8897V19.2928C135.257 20.1092 133.725 21.0103 130.63 21.0103Z" fill="white"/>
<path d="M14.7676 0C22.923 0.000137267 29.5341 6.63495 29.5342 14.8193C29.5342 20.9802 25.7872 26.2624 20.4561 28.498L19.1738 27.2119L18.5566 26.5918L18.2051 26.2393V26.2383L14.7295 22.7471L10.5645 18.5664C8.26437 16.2579 8.2643 12.5158 10.5645 10.207C12.8651 7.89854 16.5949 7.89854 18.8955 10.207C21.1955 12.5158 21.1954 16.258 18.8955 18.5664L16.6689 20.7998L20.8574 25.0615C24.3283 22.9792 26.6533 19.1725 26.6533 14.8193C26.6532 8.2318 21.3319 2.89174 14.7676 2.8916C8.20303 2.8916 2.88191 8.23171 2.88184 14.8193C2.88184 19.1385 5.17006 22.9197 8.5957 25.0127L11.1885 22.4238L13.1172 24.3418L11.2637 26.2197L11.2656 26.2207L10.7197 26.7705L10.5117 26.9824L10.5107 26.9814L9.02832 28.4785C3.72343 26.2311 0 20.9613 0 14.8193C7.33874e-05 6.63487 6.61198 0 14.7676 0ZM16.9541 12.1631C15.7223 10.927 13.7246 10.927 12.4932 12.1631C11.2616 13.3992 11.2615 15.4036 12.4932 16.6396L14.7236 18.8779L16.9541 16.6396C18.1859 15.4036 18.1859 13.3992 16.9541 12.1631Z" fill="white"/>
<path d="M14.7676 0C22.923 0.000137267 29.5341 6.63495 29.5342 14.8193C29.5342 20.9802 25.7872 26.2624 20.4561 28.498L19.1738 27.2119L18.5566 26.5918L18.2051 26.2393V26.2383L14.7295 22.7471L10.5645 18.5664C8.26437 16.2579 8.2643 12.5158 10.5645 10.207C12.8651 7.89854 16.5949 7.89854 18.8955 10.207C21.1955 12.5158 21.1954 16.258 18.8955 18.5664L16.6689 20.7998L20.8574 25.0615C24.3283 22.9792 26.6533 19.1725 26.6533 14.8193C26.6532 8.2318 21.3319 2.89174 14.7676 2.8916C8.20303 2.8916 2.88191 8.23171 2.88184 14.8193C2.88184 19.1385 5.17006 22.9197 8.5957 25.0127L11.1885 22.4238L13.1172 24.3418L11.2637 26.2197L11.2656 26.2207L10.7197 26.7705L10.5117 26.9824L10.5107 26.9814L9.02832 28.4785C3.72343 26.2311 0 20.9613 0 14.8193C7.33874e-05 6.63487 6.61198 0 14.7676 0ZM16.9541 12.1631C15.7223 10.927 13.7246 10.927 12.4932 12.1631C11.2616 13.3992 11.2615 15.4036 12.4932 16.6396L14.7236 18.8779L16.9541 16.6396C18.1859 15.4036 18.1859 13.3992 16.9541 12.1631Z" fill="url(#paint0_linear_10_3)" fill-opacity="0.7"/>
<path d="M14.7676 0C22.923 0.000137267 29.5341 6.63495 29.5342 14.8193C29.5342 20.9802 25.7872 26.2624 20.4561 28.498L19.1738 27.2119L18.5566 26.5918L18.2051 26.2393V26.2383L14.7295 22.7471L10.5645 18.5664C8.26437 16.2579 8.2643 12.5158 10.5645 10.207C12.8651 7.89854 16.5949 7.89854 18.8955 10.207C21.1955 12.5158 21.1954 16.258 18.8955 18.5664L16.6689 20.7998L20.8574 25.0615C24.3283 22.9792 26.6533 19.1725 26.6533 14.8193C26.6532 8.2318 21.3319 2.89174 14.7676 2.8916C8.20303 2.8916 2.88191 8.23171 2.88184 14.8193C2.88184 19.1385 5.17006 22.9197 8.5957 25.0127L11.1885 22.4238L13.1172 24.3418L11.2637 26.2197L11.2656 26.2207L10.7197 26.7705L10.5117 26.9824L10.5107 26.9814L9.02832 28.4785C3.72343 26.2311 0 20.9613 0 14.8193C7.33874e-05 6.63487 6.61198 0 14.7676 0ZM16.9541 12.1631C15.7223 10.927 13.7246 10.927 12.4932 12.1631C11.2616 13.3992 11.2615 15.4036 12.4932 16.6396L14.7236 18.8779L16.9541 16.6396C18.1859 15.4036 18.1859 13.3992 16.9541 12.1631Z" fill="url(#paint1_linear_10_3)" fill-opacity="0.7"/>
<path fill-rule="evenodd" clip-rule="evenodd" d="M109.425 40.8452C109.401 40.9557 109.348 41.0457 109.267 41.107C109.189 41.1724 109.099 41.2052 109.006 41.2052C108.863 41.2052 108.745 41.1561 108.659 41.0661C108.57 40.9762 108.529 40.8699 108.529 40.7471C108.529 40.6285 108.541 40.51 108.566 40.3954C108.586 40.281 108.598 40.1664 108.598 40.052C108.598 39.4713 108.419 38.9479 108.06 38.4858C107.706 38.0197 107.197 37.6312 106.541 37.3164C105.885 37.0016 105.086 36.7603 104.149 36.5927C103.207 36.425 102.16 36.3391 101.007 36.3391C100.123 36.3391 99.2346 36.3963 98.3382 36.5149C97.4459 36.6294 96.5862 36.7971 95.7589 37.0179C94.9359 37.2346 94.1658 37.5127 93.4528 37.8439C92.7356 38.1752 92.1121 38.5595 91.5824 38.9929C91.0528 39.4304 90.6371 39.913 90.3355 40.4446C90.034 40.9762 89.8833 41.5568 89.8833 42.1864C89.8833 42.6732 89.9851 43.1025 90.197 43.4746C90.4089 43.8468 90.6981 44.1697 91.065 44.4438C91.4276 44.7218 91.8594 44.9548 92.3607 45.1511C92.8578 45.3475 93.3956 45.5109 93.9742 45.6418C94.5569 45.7727 95.1599 45.8831 95.7916 45.9649C96.419 46.0508 97.0507 46.1203 97.6903 46.1774L99.5281 46.3329C100.441 46.4106 101.264 46.4964 101.985 46.5824C102.71 46.6723 103.346 46.7826 103.896 46.9176C104.813 47.1506 105.489 47.4819 105.925 47.9113C106.361 48.3447 106.581 48.9173 106.581 49.637C106.581 50.3321 106.39 50.9454 106.011 51.4687C105.628 51.9962 105.106 52.4421 104.446 52.8018C103.786 53.1617 103.012 53.4316 102.128 53.6157C101.247 53.7996 100.298 53.8895 99.2876 53.8895C98.1916 53.8895 97.2258 53.816 96.3946 53.6687C95.5634 53.5215 94.8666 53.3581 94.3043 53.1781C93.7419 52.9982 93.3142 52.8306 93.0207 52.6792C92.7275 52.5279 92.5685 52.4461 92.544 52.4298C92.4015 52.348 92.328 52.2212 92.328 52.0455C92.328 51.9104 92.377 51.8 92.4707 51.7182C92.5685 51.6324 92.6704 51.5915 92.7803 51.5915C92.87 51.5915 92.9515 51.6161 93.0207 51.661C93.0288 51.661 93.1674 51.7305 93.4324 51.8737C93.7013 52.0127 94.0965 52.1641 94.6262 52.3316C95.1559 52.4993 95.812 52.6506 96.5902 52.7897C97.3685 52.9245 98.2771 52.994 99.3122 52.994C100.339 52.994 101.247 52.9082 102.034 52.7406C102.82 52.5728 103.485 52.3398 104.022 52.0413C104.56 51.7387 104.964 51.3871 105.241 50.9863C105.514 50.5815 105.652 50.144 105.652 49.6737C105.652 49.3957 105.603 49.1544 105.501 48.95C105.404 48.7454 105.265 48.5696 105.09 48.4225C104.915 48.2752 104.707 48.1484 104.462 48.0462C104.222 47.9399 103.957 47.8541 103.668 47.7804C103.366 47.7027 103.044 47.6332 102.698 47.576C102.352 47.5228 101.993 47.4738 101.626 47.4329C101.264 47.392 100.893 47.3594 100.522 47.3266C100.156 47.2938 99.7889 47.2611 99.4303 47.2284L97.5926 47.073C96.1461 46.9544 94.8828 46.7705 93.8031 46.5169C92.7233 46.2675 91.8269 45.9403 91.1098 45.5478C90.3967 45.1511 89.8588 44.6768 89.5002 44.1288C89.1416 43.5769 88.9625 42.9348 88.9625 42.1988C88.9625 41.4464 89.1295 40.7595 89.4677 40.1297C89.8059 39.5041 90.2704 38.9398 90.8531 38.4368C91.4399 37.9339 92.1244 37.4963 92.9067 37.1241C93.6931 36.7521 94.5284 36.4453 95.4207 36.196C96.3131 35.9506 97.234 35.7625 98.1916 35.6398C99.1449 35.5172 100.082 35.4517 101.007 35.4517C102.16 35.4517 103.167 35.5254 104.022 35.6644C104.878 35.8034 105.608 35.9834 106.219 36.2042C106.826 36.4209 107.327 36.6703 107.718 36.9525C108.105 37.2306 108.419 37.5045 108.659 37.7784C109.226 38.4409 109.507 39.1933 109.507 40.0439C109.507 40.3219 109.478 40.5876 109.425 40.8452ZM112.253 52.0822C111.976 52.5361 111.65 52.8959 111.279 53.1617C110.909 53.4234 110.538 53.5543 110.163 53.5543C109.861 53.5543 109.593 53.5011 109.352 53.3866C109.112 53.2762 108.908 53.1167 108.733 52.9122C108.558 52.712 108.423 52.4665 108.333 52.1762C108.24 51.89 108.195 51.567 108.195 51.2071C108.195 50.6469 108.248 50.1522 108.354 49.7227C108.464 49.2894 108.582 48.9295 108.708 48.6391C108.835 48.3447 108.953 48.124 109.067 47.9726C109.177 47.8213 109.234 47.7436 109.234 47.7436C109.275 47.6986 109.324 47.6618 109.381 47.6374C109.442 47.6128 109.503 47.6005 109.568 47.6005C109.694 47.6005 109.8 47.6455 109.882 47.7395C109.967 47.8295 110.008 47.9359 110.008 48.0545C110.008 48.1035 110 48.1526 109.98 48.2016C109.959 48.2466 109.939 48.2956 109.914 48.3447C109.874 48.4142 109.808 48.5246 109.723 48.6719C109.633 48.8191 109.544 49.0153 109.45 49.2525C109.352 49.4938 109.271 49.776 109.197 50.099C109.124 50.4221 109.091 50.7901 109.091 51.2071C109.091 51.6773 109.185 52.0372 109.368 52.2785C109.556 52.5238 109.821 52.6465 110.163 52.6465C110.306 52.6465 110.473 52.5974 110.66 52.5074C110.847 52.4135 111.031 52.2743 111.21 52.0822C111.39 51.89 111.544 51.6447 111.679 51.3502C111.817 51.0558 111.903 50.7083 111.944 50.3075L112.123 48.2466C112.139 48.128 112.188 48.0299 112.278 47.9481C112.363 47.8704 112.469 47.8295 112.587 47.8295C112.722 47.8295 112.832 47.8785 112.909 47.9767C112.991 48.0789 113.027 48.1935 113.027 48.3202L112.873 50.3075C112.856 50.4751 112.864 50.696 112.893 50.9659C112.922 51.2397 112.979 51.5056 113.064 51.7714C113.154 52.0331 113.284 52.258 113.459 52.4461C113.635 52.6342 113.863 52.7283 114.152 52.7283C114.36 52.7283 114.56 52.6751 114.759 52.5688C114.959 52.4584 115.15 52.3194 115.334 52.1436C115.517 51.9676 115.684 51.7672 115.839 51.5506C115.994 51.3297 116.141 51.109 116.271 50.884C116.401 50.6592 116.515 50.4465 116.609 50.2421C116.707 50.0376 116.784 49.8659 116.85 49.7227C116.864 49.6908 116.88 49.662 116.898 49.6359C116.93 49.5885 116.969 49.55 117.017 49.5184C117.09 49.4692 117.167 49.4447 117.257 49.4447C117.4 49.4447 117.51 49.4938 117.591 49.5879C117.669 49.686 117.709 49.7881 117.709 49.9027C117.709 49.9641 117.697 50.0254 117.673 50.0826C117.64 50.144 117.579 50.2788 117.489 50.4834C117.396 50.6878 117.277 50.9168 117.131 51.1785C117.059 51.3051 116.979 51.4356 116.891 51.5696C116.801 51.7083 116.703 51.8507 116.597 51.9963C116.393 52.2866 116.161 52.5525 115.904 52.7937C115.652 53.0391 115.375 53.2393 115.077 53.3948C114.78 53.5501 114.458 53.6278 114.115 53.6278C113.647 53.6278 113.256 53.4929 112.946 53.2272C112.636 52.9573 112.404 52.577 112.253 52.0822ZM118.797 44.0184C118.797 44.321 118.691 44.5786 118.479 44.7914C118.267 45.0039 118.015 45.1103 117.709 45.1103C117.408 45.1103 117.151 45.0039 116.939 44.7914C116.731 44.5786 116.625 44.321 116.625 44.0184C116.625 43.8672 116.654 43.724 116.707 43.5932C116.764 43.4623 116.841 43.3479 116.939 43.2456C117.041 43.1475 117.155 43.0699 117.285 43.0125C117.42 42.9553 117.558 42.9308 117.709 42.9308C117.86 42.9308 118.003 42.9553 118.133 43.0125C118.267 43.0699 118.382 43.1475 118.479 43.2456C118.581 43.3479 118.659 43.4623 118.712 43.5932C118.769 43.724 118.797 43.8672 118.797 44.0184ZM116.862 51.0395C116.862 50.5715 116.874 50.1034 116.898 49.6359C116.933 48.9557 116.993 48.2767 117.078 47.6005C117.094 47.4901 117.143 47.392 117.228 47.3061C117.31 47.2243 117.42 47.1834 117.554 47.1834C117.673 47.1834 117.774 47.2284 117.852 47.3184C117.933 47.4124 117.974 47.5186 117.974 47.6374C117.974 47.6865 117.962 47.8295 117.941 48.0666C117.925 48.3079 117.901 48.5941 117.872 48.9254C117.844 49.2567 117.819 49.6082 117.799 49.9804C117.779 50.3525 117.77 50.6919 117.77 51.0026C117.77 51.428 117.811 51.7672 117.897 52.029C117.978 52.2866 118.088 52.487 118.218 52.6342C118.349 52.7773 118.487 52.8713 118.634 52.9205C118.781 52.9696 118.923 52.994 119.058 52.994C119.282 52.994 119.514 52.9122 119.751 52.7528C119.991 52.5932 120.236 52.3684 120.484 52.0822C120.737 51.796 120.989 51.4485 121.246 51.0435C121.476 50.6779 121.707 50.2717 121.931 49.8275C121.953 49.7848 121.974 49.7416 121.996 49.6982C122.037 49.6165 122.093 49.5552 122.163 49.5101C122.236 49.4692 122.314 49.4447 122.403 49.4447C122.529 49.4447 122.636 49.4938 122.717 49.5879C122.803 49.686 122.843 49.7881 122.843 49.9027C122.843 49.9803 122.827 50.0499 122.794 50.1031C122.701 50.287 122.583 50.512 122.436 50.7778C122.39 50.8622 122.342 50.9475 122.291 51.0338C122.186 51.2149 122.071 51.4003 121.947 51.5915C121.764 51.8695 121.564 52.1476 121.344 52.4216C121.128 52.6997 120.896 52.945 120.647 53.1658C120.398 53.3867 120.142 53.5624 119.873 53.6973C119.6 53.8364 119.327 53.9019 119.046 53.9019C118.691 53.9019 118.373 53.8282 118.104 53.6729C117.836 53.5215 117.603 53.3211 117.42 53.0635C117.232 52.8101 117.09 52.5074 117 52.1599C116.951 51.9706 116.915 51.774 116.891 51.5696C116.872 51.3985 116.862 51.222 116.862 51.0395ZM118.129 44.0184C118.129 43.908 118.088 43.8099 118.003 43.724C117.921 43.6422 117.823 43.6013 117.709 43.6013C117.599 43.6013 117.501 43.6422 117.424 43.724C117.343 43.8099 117.306 43.908 117.306 44.0184C117.306 44.133 117.343 44.227 117.424 44.3048C117.501 44.3864 117.599 44.4273 117.709 44.4273C117.823 44.4273 117.921 44.3864 118.003 44.3048C118.088 44.227 118.129 44.133 118.129 44.0184ZM131.653 41.43C131.653 41.5608 131.612 41.6631 131.522 41.7368C131.437 41.8144 131.327 41.8512 131.201 41.8512H125.15V41.9821C125.15 42.4687 125.113 42.988 125.04 43.54C124.97 44.0921 124.872 44.64 124.75 45.188C124.624 45.7359 124.485 46.2674 124.331 46.7868C124.176 47.3061 124.017 47.7845 123.854 48.2261C123.691 48.6636 123.528 49.0439 123.369 49.3671C123.21 49.69 123.067 49.9313 122.941 50.0908C123.043 50.4588 123.165 50.8022 123.312 51.1172C123.454 51.432 123.613 51.7101 123.793 51.9432C123.972 52.1803 124.163 52.3642 124.371 52.4993C124.579 52.6383 124.803 52.7037 125.04 52.7037C125.321 52.7037 125.598 52.5851 125.871 52.3521C126.144 52.115 126.4 51.8367 126.633 51.5138C126.869 51.1907 127.077 50.8636 127.256 50.5283C127.435 50.197 127.566 49.9313 127.643 49.7351C127.681 49.6469 127.73 49.5785 127.792 49.5304C127.865 49.4735 127.955 49.4447 128.063 49.4447C128.197 49.4447 128.307 49.4938 128.389 49.5879C128.475 49.686 128.515 49.7881 128.515 49.9027C128.515 49.9559 128.503 50.0131 128.479 50.0704C128.454 50.1235 128.397 50.2544 128.307 50.4507C128.214 50.651 128.096 50.8841 127.949 51.1458C127.911 51.2147 127.871 51.2844 127.83 51.3549C127.712 51.5565 127.58 51.7649 127.435 51.9799C127.24 52.2703 127.02 52.5361 126.779 52.7773C126.535 53.0145 126.274 53.2149 125.997 53.3743C125.716 53.5339 125.422 53.6157 125.113 53.6157C124.563 53.6157 124.07 53.4357 123.634 53.0758C123.194 52.716 122.823 52.2131 122.517 51.567C122.437 51.3977 122.362 51.2199 122.291 51.0338C122.152 50.6644 122.031 50.2621 121.931 49.8275C121.889 49.6456 121.851 49.458 121.816 49.2648C121.658 48.3816 121.58 47.4084 121.58 46.3534C121.58 46.0917 121.584 45.7809 121.592 45.4251C121.6 45.0734 121.617 44.6972 121.637 44.3006C121.662 43.904 121.698 43.4991 121.747 43.078C121.792 42.6609 121.857 42.252 121.939 41.8512H117.652C117.526 41.8512 117.416 41.8144 117.33 41.7368C117.241 41.6631 117.2 41.5608 117.196 41.43C117.2 41.3032 117.241 41.201 117.33 41.1275C117.416 41.0498 117.526 41.0129 117.652 41.0129H122.138C122.22 40.7267 122.314 40.461 122.419 40.2196C122.529 39.9825 122.652 39.7739 122.79 39.5982C122.929 39.4223 123.084 39.2832 123.255 39.1851C123.426 39.087 123.618 39.0338 123.825 39.0338C124.021 39.0338 124.196 39.087 124.343 39.1851C124.49 39.2832 124.616 39.4223 124.718 39.5982C124.824 39.7739 124.905 39.9825 124.962 40.2196C125.023 40.461 125.068 40.7267 125.101 41.0129H131.201C131.327 41.0129 131.437 41.0498 131.522 41.1275C131.612 41.201 131.653 41.3032 131.653 41.43ZM122.664 48.8968C122.904 48.3693 123.12 47.8009 123.316 47.1875C123.511 46.5782 123.679 45.9608 123.817 45.3352C123.956 44.7135 124.066 44.1044 124.139 43.5032C124.216 42.9062 124.253 42.3542 124.253 41.8512H122.843C122.733 42.3459 122.644 42.9594 122.574 43.6913C122.509 44.4192 122.472 45.3105 122.472 46.3534C122.472 46.9381 122.489 47.4289 122.521 47.8213C122.554 48.2179 122.603 48.5737 122.664 48.8968ZM123.776 39.9335C123.703 39.9335 123.601 40.0111 123.467 40.1664C123.328 40.3219 123.194 40.604 123.059 41.0129H124.204C124.168 40.6777 124.106 40.4119 124.033 40.2196C123.956 40.0315 123.87 39.9335 123.776 39.9335ZM129.122 52.1067C129.29 52.3357 129.505 52.5238 129.766 52.6628C130.031 52.8018 130.353 52.8713 130.732 52.8713C131.123 52.8713 131.478 52.7773 131.795 52.5892C132.113 52.4012 132.407 52.1557 132.667 51.8532C132.928 51.5506 133.165 51.2111 133.372 50.835C133.58 50.4588 133.768 50.0866 133.935 49.7105C133.96 49.6479 133.996 49.5972 134.039 49.557C134.059 49.5394 134.079 49.5238 134.102 49.5101C134.171 49.4692 134.252 49.4447 134.338 49.4447C134.472 49.4447 134.583 49.4938 134.668 49.5879C134.75 49.686 134.79 49.7881 134.79 49.9027C134.79 49.9394 134.79 49.9762 134.782 50.005C134.774 50.0294 134.762 50.0622 134.746 50.0908C134.741 50.101 134.736 50.1111 134.732 50.1213C134.185 51.3206 133.591 52.2264 132.949 52.8346C132.301 53.452 131.567 53.7668 130.744 53.7833C130.218 53.7833 129.766 53.681 129.383 53.4766C129.004 53.2721 128.686 53.0105 128.442 52.6874C128.193 52.3643 128.01 51.9962 127.892 51.5915C127.869 51.5125 127.848 51.4337 127.83 51.3549C127.752 51.026 127.713 50.6988 127.713 50.3689C127.713 50.0715 127.738 49.7915 127.792 49.5304C127.812 49.4323 127.836 49.337 127.863 49.2443C127.961 48.9009 128.104 48.5982 128.291 48.3447C128.479 48.0871 128.703 47.8867 128.959 47.7436C129.22 47.6005 129.505 47.531 129.815 47.531C129.998 47.531 130.178 47.5679 130.357 47.6414C130.536 47.7191 130.699 47.8255 130.842 47.9685C130.985 48.1075 131.099 48.2752 131.188 48.4755C131.274 48.6759 131.319 48.9049 131.319 49.1585C131.319 49.4856 131.262 49.7923 131.152 50.0826C131.042 50.3689 130.887 50.6346 130.691 50.884C130.496 51.1295 130.263 51.3585 129.994 51.567C129.721 51.7756 129.432 51.9555 129.122 52.1067ZM128.764 51.3257C129.012 51.2235 129.236 51.0926 129.44 50.9331C129.64 50.7736 129.815 50.5979 129.958 50.4056C130.1 50.2135 130.215 50.0131 130.292 49.8004C130.373 49.5879 130.41 49.3752 130.41 49.1585C130.41 48.9173 130.353 48.7373 130.231 48.6146C130.113 48.4878 129.974 48.4265 129.815 48.4265C129.599 48.4265 129.416 48.4878 129.265 48.6064C129.114 48.7292 128.992 48.8845 128.894 49.0726C128.8 49.2648 128.731 49.4815 128.686 49.7146C128.642 49.9518 128.621 50.1849 128.621 50.4179C128.621 50.5611 128.633 50.7123 128.662 50.8717C128.69 51.0312 128.723 51.1826 128.764 51.3257ZM135.259 48.9909C135.21 49.1176 135.153 49.2606 135.084 49.4201C135.014 49.5796 134.937 49.7514 134.851 49.9272C134.811 50.0006 134.772 50.0655 134.732 50.1213C134.698 50.1681 134.665 50.2085 134.631 50.2421C134.554 50.3198 134.456 50.3565 134.338 50.3565C134.204 50.3565 134.093 50.3156 134.016 50.2298C133.935 50.148 133.898 50.0499 133.898 49.9355C133.898 49.8985 133.902 49.8618 133.906 49.8372C133.914 49.8086 133.935 49.7595 133.967 49.6982C133.992 49.6504 134.016 49.6033 134.039 49.557C134.211 49.2153 134.341 48.9143 134.428 48.6515C134.525 48.3488 134.607 48.038 134.672 47.7109C134.615 47.5269 134.578 47.3715 134.554 47.2406C134.529 47.1139 134.517 46.983 134.517 46.8481C134.517 46.5824 134.574 46.3697 134.684 46.2061C134.794 46.0426 134.949 45.9608 135.149 45.9608C135.332 45.9608 135.479 46.0384 135.585 46.1979C135.695 46.3574 135.748 46.5536 135.748 46.7868C135.748 46.9135 135.736 47.0404 135.711 47.1711C135.687 47.298 135.654 47.4574 135.613 47.6496C135.797 48.1035 135.98 48.5083 136.163 48.86C136.347 49.2116 136.51 49.5305 136.652 49.825C136.795 50.1152 136.913 50.3893 137.007 50.6427C137.097 50.9005 137.141 51.154 137.141 51.4116C137.141 51.747 137.076 52.0657 136.942 52.3684C136.803 52.671 136.583 52.9287 136.273 53.1372C136.31 53.1453 136.351 53.1495 136.392 53.1495C136.432 53.1495 136.469 53.1495 136.51 53.1495C136.966 53.1495 137.382 53.0431 137.765 52.8346C138.148 52.6302 138.49 52.3603 138.796 52.029C139.101 51.6977 139.374 51.3297 139.615 50.925C139.851 50.5202 140.059 50.1194 140.234 49.7227C140.315 49.5387 140.426 49.4447 140.568 49.4447C140.703 49.4447 140.809 49.4938 140.886 49.5879C140.959 49.686 141 49.7881 141 49.9027C141 49.9641 140.988 50.0254 140.963 50.0826C140.874 50.2952 140.764 50.5406 140.621 50.8187C140.482 51.0926 140.315 51.3748 140.12 51.6692C139.928 51.9595 139.7 52.2457 139.448 52.5238C139.191 52.8059 138.91 53.0554 138.592 53.2721C138.278 53.4929 137.936 53.6687 137.561 53.7996C137.186 53.9346 136.779 54 136.33 54C135.797 54 135.304 53.906 134.843 53.7178C134.387 53.5297 134.016 53.219 133.731 52.7897C133.682 52.716 133.658 52.6425 133.658 52.5606C133.658 52.4421 133.702 52.3357 133.796 52.2417C133.886 52.1517 133.992 52.1067 134.11 52.1067C134.24 52.1067 134.346 52.1476 134.432 52.2376C134.44 52.254 134.468 52.2785 134.517 52.3152C134.566 52.3521 134.623 52.393 134.688 52.4338C134.758 52.4788 134.839 52.5156 134.929 52.5483C135.018 52.5811 135.112 52.5974 135.21 52.5974C135.401 52.5974 135.56 52.5565 135.691 52.4788C135.825 52.397 135.931 52.2989 136.009 52.1845C136.09 52.0657 136.147 51.9432 136.184 51.8123C136.216 51.6814 136.237 51.567 136.237 51.4687C136.237 51.2725 136.204 51.0721 136.139 50.8717C136.078 50.6715 135.996 50.4711 135.894 50.2707C135.797 50.0745 135.691 49.8659 135.573 49.6574C135.458 49.4447 135.353 49.2239 135.259 48.9909Z" fill="white"/>
<path d="M117.017 49.5184C116.969 49.55 116.93 49.5885 116.898 49.6359C116.874 50.1034 116.862 50.5715 116.862 51.0395C116.862 51.222 116.872 51.3985 116.891 51.5696C116.979 51.4356 117.059 51.3051 117.131 51.1785C117.277 50.9168 117.396 50.6878 117.489 50.4834C117.579 50.2788 117.64 50.144 117.673 50.0826C117.697 50.0254 117.709 49.9641 117.709 49.9027C117.709 49.7881 117.669 49.686 117.591 49.5879C117.51 49.4938 117.4 49.4447 117.257 49.4447C117.167 49.4447 117.09 49.4692 117.017 49.5184Z" fill="white"/>
<path d="M121.996 49.6982C121.974 49.7416 121.953 49.7848 121.931 49.8275C122.031 50.2621 122.152 50.6644 122.291 51.0338C122.342 50.9475 122.39 50.8622 122.436 50.7778C122.583 50.512 122.701 50.287 122.794 50.1031C122.827 50.0499 122.843 49.9803 122.843 49.9027C122.843 49.7881 122.803 49.686 122.717 49.5879C122.636 49.4938 122.529 49.4447 122.403 49.4447C122.314 49.4447 122.236 49.4692 122.163 49.5101C122.093 49.5552 122.037 49.6165 121.996 49.6982Z" fill="white"/>
<path d="M128.063 49.4447C127.955 49.4447 127.865 49.4735 127.792 49.5304C127.738 49.7915 127.713 50.0715 127.713 50.3689C127.713 50.6988 127.752 51.026 127.83 51.3549C127.871 51.2844 127.911 51.2147 127.949 51.1458C128.096 50.8841 128.214 50.651 128.307 50.4507C128.397 50.2544 128.454 50.1235 128.479 50.0704C128.503 50.0131 128.515 49.9559 128.515 49.9027C128.515 49.7881 128.475 49.686 128.389 49.5879C128.307 49.4938 128.197 49.4447 128.063 49.4447Z" fill="white"/>
<path d="M134.102 49.5101C134.079 49.5238 134.059 49.5394 134.039 49.557C134.016 49.6033 133.992 49.6504 133.967 49.6982C133.935 49.7595 133.914 49.8086 133.906 49.8372C133.902 49.8618 133.898 49.8985 133.898 49.9355C133.898 50.0499 133.935 50.148 134.016 50.2298C134.093 50.3156 134.204 50.3565 134.338 50.3565C134.456 50.3565 134.554 50.3198 134.631 50.2421C134.665 50.2085 134.698 50.1681 134.732 50.1213C134.736 50.1111 134.741 50.101 134.746 50.0908C134.762 50.0622 134.774 50.0294 134.782 50.005C134.79 49.9762 134.79 49.9394 134.79 49.9027C134.79 49.7881 134.75 49.686 134.668 49.5879C134.583 49.4938 134.472 49.4447 134.338 49.4447C134.252 49.4447 134.171 49.4692 134.102 49.5101Z" fill="white"/>
<defs>
<linearGradient id="paint0_linear_10_3" x1="29.5477" y1="-8.80729" x2="-8.08896" y2="28.4943" gradientUnits="userSpaceOnUse">
<stop stop-color="#B07E2C"/>
<stop offset="0.5" stop-color="#FDF1A3"/>
<stop offset="1" stop-color="#B07E2C"/>
</linearGradient>
<linearGradient id="paint1_linear_10_3" x1="7.6528" y1="-10.028" x2="17.6539" y2="37.1574" gradientUnits="userSpaceOnUse">
<stop stop-color="#B07E2C"/>
<stop offset="0.5" stop-color="#FDF1A3"/>
<stop offset="1" stop-color="#B07E2C"/>
</linearGradient>
</defs>
</svg>
