<?xml version="1.0" encoding="UTF-8"?>
<svg version="1.1" xmlns="http://www.w3.org/2000/svg" width="512" height="512">
<path d="M0 0 C11.13384057 7.29774767 20.46751943 18.48710578 29.86003113 27.82325745 C30.69412695 28.65202959 31.52822277 29.48080173 32.38759422 30.33468819 C36.79264971 34.71317951 41.19413483 39.09522774 45.59318542 43.47975159 C49.21842942 47.09161408 52.85082104 50.69604985 56.4896698 54.29420471 C60.90845562 58.66360385 65.31477489 63.04521514 69.71248436 67.43582344 C71.3815062 69.09815426 73.05476261 70.75624529 74.73241615 72.40986443 C77.0796593 74.72535384 79.41049461 77.05626994 81.73820496 79.39137268 C82.42452499 80.06128738 83.11084503 80.73120209 83.81796265 81.42141724 C90.63379511 88.32579624 94.70183154 95.90289238 95.46549988 105.6396637 C94.65231173 118.04078298 88.65436726 125.32719606 80.09049988 133.66700745 C78.48100754 135.25608132 76.87163624 136.84527779 75.26237488 138.43458557 C72.73689572 140.91658129 70.20898607 143.39603898 67.6783905 145.87281799 C65.22591442 148.27686483 62.78284033 150.69017045 60.34049988 153.10450745 C59.58623718 153.83701218 58.83197449 154.56951691 58.05485535 155.32421875 C52.12154175 161.20149793 47.69071271 166.66622973 47.12565613 175.2724762 C47.27148213 178.81034175 48.45988719 181.46518378 50.21549988 184.4521637 C50.66924988 185.22817932 51.12299988 186.00419495 51.59049988 186.8037262 C54.2254278 191.098152 57.00847568 195.22306654 60.08268738 199.21388245 C60.57897644 199.86421448 61.0752655 200.51454651 61.58659363 201.18458557 C62.5668508 202.45891989 63.56110627 203.72264443 64.57096863 204.97364807 C68.03552311 209.4775689 69.05367286 212.74626298 69.21549988 218.4521637 C67.66673966 222.12028 65.75334831 224.58496591 62.21549988 226.4521637 C57.57640753 227.05352752 54.69074683 226.61016976 50.85270691 223.90846252 C47.38473727 220.82369681 44.92650905 216.89924826 42.34049988 213.0771637 C41.72916199 212.18464905 41.1178241 211.2921344 40.48796082 210.37257385 C30.14593432 195.12260632 23.23603291 183.49008133 26.21549988 164.4521637 C29.12897232 153.09912161 37.31152035 145.04267702 45.52018738 137.12794495 C47.08830569 135.58995138 48.65600202 134.05152748 50.22331238 132.51271057 C52.66749212 130.12452889 55.11543166 127.74053434 57.57096863 125.36402893 C59.96100834 123.04642186 62.33519286 120.71349076 64.70768738 118.37794495 C65.44614899 117.67156387 66.1846106 116.9651828 66.94544983 116.23739624 C69.86137867 113.35085232 71.92968586 111.18363927 73.43473816 107.33180237 C72.90637298 100.39186102 66.3035785 95.26045082 61.63298035 90.62672424 C60.87483032 89.86667587 60.1166803 89.1066275 59.33555603 88.32354736 C56.83945293 85.82375269 54.33624614 83.33120844 51.83268738 80.83888245 C50.09405157 79.10143912 48.35578568 77.36362556 46.61787415 75.62545776 C42.98113979 71.99028531 39.34107626 68.35849146 35.69841003 64.72926331 C31.02120074 60.06908764 26.35064565 55.40231184 21.68232536 50.73323345 C18.09681111 47.14799054 14.5087011 43.56535527 10.91969681 39.98360634 C9.1958465 38.26294487 7.47260708 36.54167118 5.74998093 34.81978416 C3.3489057 32.4208677 0.94457255 30.02526752 -1.46076965 27.63063049 C-2.17665253 26.91429443 -2.8925354 26.19795837 -3.63011169 25.45991516 C-4.2833844 24.81090744 -4.9366571 24.16189972 -5.60972595 23.4932251 C-6.17788591 22.92674098 -6.74604588 22.36025686 -7.33142281 21.77660656 C-9.59284983 19.71537359 -10.89254226 19.43781454 -13.99226379 19.02613831 C-19.10954173 19.60102081 -20.98497556 21.66792331 -24.46028137 25.26856995 C-25.07034531 25.87668015 -25.68040924 26.48479034 -26.30895996 27.11132812 C-27.59890813 28.40527246 -28.88023312 29.70786292 -30.15339661 31.01832581 C-32.06022721 32.97689305 -33.99607926 34.90231395 -35.938797 36.82521057 C-56.51017678 57.47749536 -68.02650055 81.12809005 -68.28450012 110.5146637 C-68.13014636 131.47045734 -61.32975072 148.03058837 -51.72200012 166.4521637 C-51.39203033 167.08655365 -51.06206055 167.7209436 -50.72209167 168.3745575 C-32.29426309 203.72659057 -9.49864939 237.01237579 16.21549988 267.4521637 C16.98458679 268.36989563 16.98458679 268.36989563 17.76921082 269.3061676 C29.08061216 282.79963173 41.16436455 295.48607295 53.59049988 307.9521637 C54.51781921 308.88415588 55.44513855 309.81614807 56.40055847 310.77638245 C61.51230439 315.87616998 66.71579584 320.77483151 72.21549988 325.4521637 C73.33350814 326.42517976 74.45072491 327.39910618 75.56706238 328.3740387 C83.01642196 334.82670052 90.59918666 341.06363372 98.41471863 347.06788635 C99.61259945 347.98870852 100.80793261 348.91285468 102.00065613 349.84034729 C125.22398561 367.87855434 150.32836776 383.27245851 176.13102722 397.3115387 C178.1323588 398.40666883 180.12195043 399.52070316 182.11003113 400.6396637 C205.98478043 413.93820912 232.633186 420.07213535 259.75065613 413.4834137 C276.98212721 408.35476841 291.18331903 401.01724129 304.21549988 388.4521637 C305.4801383 387.36160506 306.7507978 386.27798121 308.02799988 385.2021637 C311.83136369 381.88201414 315.43726396 378.37378981 319.02799988 374.8271637 C319.59172302 374.27641174 320.15544617 373.72565979 320.73625183 373.15821838 C326.25642352 367.78802905 326.25642352 367.78802905 328.34049988 360.6396637 C325.69801347 353.15261886 318.20120646 347.29157289 312.65959167 341.76686096 C311.94001785 341.04553482 311.22044403 340.32420868 310.47906494 339.58102417 C308.12677261 337.22437034 305.77088923 334.87134581 303.41471863 332.51856995 C301.77027015 330.87344723 300.12597008 329.22817614 298.48181152 327.58276367 C295.04985512 324.14933842 291.61610987 320.71771509 288.18107605 317.28736877 C283.77134917 312.88336576 279.36616309 308.47485224 274.96228313 304.0650034 C271.5747289 300.6738446 268.18480772 297.28506 264.79415321 293.89700127 C263.16785527 292.27137148 261.54230281 290.64499556 259.91750145 289.01786995 C257.65555112 286.75339193 255.39044084 284.49212389 253.12443542 282.23170471 C252.11378525 281.21801819 252.11378525 281.21801819 251.0827179 280.18385315 C250.46743729 279.57139236 249.85215668 278.95893158 249.2182312 278.32791138 C248.68346507 277.79352227 248.14869894 277.25913317 247.59772778 276.70855045 C245.62832423 274.91844584 244.2198571 274.45299364 241.59049988 273.9521637 C234.03921408 275.0708727 228.04383081 283.54650907 222.92643738 288.8896637 C221.55888619 290.29422381 220.19036551 291.69784051 218.82096863 293.1006012 C216.70605749 295.27076897 214.59700813 297.44534929 212.5040741 299.63673401 C202.58290281 310.00408936 192.1134393 320.72428976 176.89518738 321.6552887 C155.01273842 321.92488766 140.67653368 310.02932323 124.09098816 296.92823792 C122.40257879 295.59940128 120.70181599 294.28952326 118.99284363 292.98731995 C118.09694519 292.29509338 117.20104675 291.60286682 116.27799988 290.8896637 C115.52647644 290.31087463 114.774953 289.73208557 114.00065613 289.13575745 C111.23051131 286.52321387 110.32914797 284.32346574 109.84049988 280.5771637 C110.31410612 276.63044505 111.77220601 274.54221182 114.21549988 271.4521637 C117.8997439 269.61004168 121.29072343 269.59343875 125.21549988 270.4521637 C128.88525814 272.61693937 132.08554784 275.28014738 135.37419128 277.97950745 C138.93444002 280.82695115 142.64338077 283.47397066 146.34049988 286.1396637 C147.11522644 286.69968079 147.889953 287.25969788 148.68815613 287.83668518 C159.55497552 296.20665745 159.55497552 296.20665745 172.40299988 299.7646637 C173.11842957 299.80204651 173.83385925 299.83942932 174.57096863 299.87794495 C183.04119205 298.51420144 188.35476452 292.80911973 194.02799988 286.8896637 C194.84115662 286.06136047 195.65431335 285.23305725 196.49211121 284.37965393 C199.07650241 281.74664571 201.64750601 279.10116075 204.21549988 276.4521637 C207.59961598 272.96130116 210.99697165 269.48413523 214.40299988 266.0146637 C215.16781677 265.21665344 215.93263367 264.41864319 216.72062683 263.59645081 C223.54237563 256.65196292 230.28740724 252.36591073 240.27799988 252.1396637 C259.65536811 252.39745573 272.09374687 270.13357762 284.86003113 282.82325745 C285.69412695 283.65202959 286.52822277 284.48080173 287.38759422 285.33468819 C291.79264971 289.71317951 296.19413483 294.09522774 300.59318542 298.47975159 C304.21842942 302.09161408 307.85082104 305.69604985 311.4896698 309.29420471 C315.90845562 313.66360385 320.31477489 318.04521514 324.71248436 322.43582344 C326.3815062 324.09815426 328.05476261 325.75624529 329.73241615 327.40986443 C332.0796593 329.72535384 334.41049461 332.05626994 336.73820496 334.39137268 C337.76768501 335.39624474 337.76768501 335.39624474 338.81796265 336.42141724 C345.53045717 343.2211158 350.22407432 351.30504192 350.52799988 361.0146637 C350.29027912 372.61204089 344.93942932 379.77999012 336.97428894 387.69483948 C335.02657635 389.64092988 333.11736556 391.62110176 331.20768738 393.60450745 C308.1770445 417.33040504 279.08665445 437.06149627 244.73503113 437.69044495 C230.17476182 437.90091374 216.24701155 437.78085666 202.21549988 433.4521637 C201.5501825 433.24849182 200.88486511 433.04481995 200.1993866 432.8349762 C173.13528149 424.21913728 147.8444764 407.84655318 124.21549988 392.4521637 C123.56178406 392.02870667 122.90806824 391.60524963 122.23454285 391.16896057 C106.48523847 380.94224479 91.41692941 369.89337609 76.96842957 357.90089417 C74.46538664 355.83222331 71.93129612 353.80234155 69.40299988 351.7646637 C64.79776632 347.99611671 60.38676453 344.04428066 56.01628113 340.0068512 C54.57274014 338.69014853 53.12554995 337.37614831 51.63322449 336.11500549 C44.78452873 330.30558799 38.51466699 323.90169997 32.17912292 317.54615784 C30.1578572 315.5195339 28.13130414 313.49830822 26.10417175 311.47755432 C19.9287913 305.30564446 13.83798608 299.13912474 8.21549988 292.4521637 C7.19493536 291.2946763 6.171483 290.13972886 5.14518738 288.98731995 C-2.29902458 280.55030513 -9.24539641 271.82467845 -15.98860168 262.82008362 C-17.73318839 260.51981901 -19.50985911 258.24639021 -21.28881836 255.97268677 C-27.10510648 248.50804716 -32.44241473 240.78145735 -37.65950012 232.8896637 C-38.09204102 232.23808289 -38.52458191 231.58650208 -38.9702301 230.91517639 C-46.24121749 219.95436934 -53.25359242 208.87316013 -59.78450012 197.4521637 C-60.20844055 196.71175842 -60.63238098 195.97135315 -61.06916809 195.20851135 C-63.59939213 190.76582974 -66.07168501 186.29463402 -68.50617981 181.79884338 C-69.85539741 179.32201382 -71.23046369 176.86043689 -72.60481262 174.3974762 C-77.43145724 165.62131157 -81.65978864 156.89971124 -84.84700012 147.3896637 C-85.12181213 146.57006165 -85.39662415 145.75045959 -85.67976379 144.90602112 C-89.27878439 133.48863661 -90.17567511 122.25621775 -90.15950012 110.3271637 C-90.1589563 109.64685089 -90.15841248 108.96653809 -90.15785217 108.26560974 C-90.11730951 97.20573364 -89.23392324 86.98419227 -85.78450012 76.4521637 C-85.57019348 75.77733948 -85.35588684 75.10251526 -85.13508606 74.40724182 C-78.54081929 54.1157135 -67.30287174 37.62140707 -52.56965637 22.31349182 C-51.29906257 20.9886823 -50.03691022 19.65575457 -48.78059387 18.31739807 C-36.16590207 4.90122032 -19.97964114 -11.24955351 0 0 Z " fill="#000000" transform="translate(89.78450012207031,74.54783630371094)"/>
<path d="M0 0 C6.14936094 2.13867155 12.18077777 4.528926 18.17285156 7.07275391 C18.92115234 7.38970215 19.66945313 7.70665039 20.44042969 8.03320312 C36.08142794 14.77392824 50.70698882 23.65454228 64.17285156 34.07275391 C64.98625 34.69408203 65.79964844 35.31541016 66.63769531 35.95556641 C73.48373024 41.29828561 79.86712881 47.11295973 86.17285156 53.07275391 C87.03007812 53.87583984 87.88730469 54.67892578 88.77050781 55.50634766 C95.15208509 61.66542937 100.59739756 68.36375516 105.92822266 75.42675781 C107.01464036 76.86352284 108.11775599 78.28763103 109.22363281 79.70947266 C130.31237292 107.52215888 142.89103485 139.95755718 149.17285156 174.07275391 C149.305625 174.78705566 149.43839844 175.50135742 149.57519531 176.23730469 C151.16127995 185.19912842 151.41479195 194.17974668 151.54785156 203.26025391 C151.58712769 204.89293213 151.58712769 204.89293213 151.62719727 206.55859375 C151.64352405 214.28539438 151.64352405 214.28539438 149.27441406 218.24853516 C145.9712335 221.11579412 143.59968322 221.42183101 139.20800781 221.35009766 C135.90171167 220.89952755 134.36041087 219.51767314 132.17285156 217.07275391 C130.03214324 212.06771754 129.90186818 207.53762751 129.79785156 202.19775391 C129.14347456 184.12143255 125.73788639 166.26886568 120.17285156 149.07275391 C119.8199707 147.96335449 119.8199707 147.96335449 119.45996094 146.83154297 C103.88378611 98.80842875 68.22093626 57.17345587 23.34619141 34.17675781 C22.62898926 33.81243652 21.91178711 33.44811523 21.17285156 33.07275391 C20.4801416 32.71487793 19.78743164 32.35700195 19.07373047 31.98828125 C-6.0113041 19.13493925 -33.72627065 12.47099536 -61.84863281 11.55517578 C-67.85440234 11.29827039 -73.56064689 11.04867834 -78.26464844 6.94775391 C-80.30266437 3.19780459 -80.6888067 0.25433075 -79.82714844 -3.92724609 C-68.47918195 -21.70572693 -16.43932831 -5.39175897 0 0 Z " fill="#000000" transform="translate(360.8271484375,9.92724609375)"/>
<path d="M0 0 C1.4075354 0.00845947 1.4075354 0.00845947 2.84350586 0.01708984 C25.17286983 0.3964768 46.49269419 6.59279358 66.5 16.3125 C67.5828125 16.83328125 68.665625 17.3540625 69.78125 17.890625 C84.68661943 25.49088763 97.59198361 35.66075369 109.5 47.3125 C110.16128906 47.92351562 110.82257813 48.53453125 111.50390625 49.1640625 C137.73595621 73.87453183 154.45831625 113.79320429 155.73828125 149.51171875 C155.76844251 151.34106448 155.7931061 153.17050844 155.8125 155 C155.84150391 155.92361328 155.87050781 156.84722656 155.90039062 157.79882812 C155.94079762 162.11616056 155.91242799 164.61867124 153.66796875 168.39453125 C150.86011398 170.87859736 148.8934226 171.26796159 145.1875 171.6875 C140.25001554 171.18538294 138.89480568 169.86896309 135.5 166.3125 C134.47581197 163.33848321 134.29491053 160.39632682 134.10546875 157.26953125 C131.95215662 125.20121857 122.54186548 96.14511376 101.5 71.3125 C101.06574707 70.79993652 100.63149414 70.28737305 100.18408203 69.75927734 C77.82718897 43.66126005 44.81635231 25.88844152 10.5 22.3125 C6.70986275 22.02051786 2.9181921 21.79699671 -0.88183594 21.68994141 C-6.23942732 21.50631953 -9.87393866 20.85066614 -13.8125 17.125 C-15.96888301 13.53102832 -16.0166595 11.44577601 -15.5 7.3125 C-11.9953886 -0.19738157 -7.42963372 -0.04640621 0 0 Z " fill="#000000" transform="translate(296.5,59.6875)"/>
<path d="M0 0 C22.96534787 12.0913408 41.11821653 33.41839235 48.9609375 58.1796875 C51.68843245 67.34264438 53.47261413 76.25045943 53.58984375 85.84375 C53.615625 87.11476563 53.64140625 88.38578125 53.66796875 89.6953125 C53.32039021 93.42764398 52.56895881 95.25206011 50.33984375 98.21875 C46.91064803 100.79064679 43.50044889 100.720892 39.33984375 100.21875 C35.86418856 98.20162868 33.63530863 96.10514464 32.33984375 92.21875 C32.13058065 90.23593033 31.92475594 88.25261255 31.74560547 86.2668457 C29.611976 63.19071219 20.84395861 43.34865531 2.90625 28.125 C-11.85741686 17.15898869 -28.35383677 11.35211895 -46.6796875 10.66015625 C-50.82959809 10.04555612 -53.48512306 8.35326481 -56.47265625 5.46875 C-58.21262053 2.17197558 -58.10422613 -0.10181389 -57.66015625 -3.78125 C-48.51696552 -20.80650171 -13.28308403 -6.62898712 0 0 Z " fill="#000000" transform="translate(338.66015625,130.78125)"/>
<path d="M0 0 C10.77552561 5.10936777 17.39593829 12.53837895 22.08984375 23.421875 C24.38985051 29.93691561 25.45659117 37.50418118 22.75 44 C19.82954177 47.33766655 17.992551 47.90976809 13.5625 48.3125 C9.74343893 47.97749464 7.97073277 47.37658622 5 45 C3.13309872 41.94446013 2.64108085 39.2114743 2.1875 35.6875 C1.12757855 29.61924741 -0.63419899 25.38379671 -5.75390625 21.7578125 C-10.27173798 19.25703291 -14.74823885 18.43041052 -19.79296875 17.5625 C-22.77443025 16.80262309 -24.22240238 15.4731793 -26 13 C-27.53214888 9.93570224 -27.22938548 7.3834358 -27 4 C-22.15906883 -6.89209513 -9.04656649 -3.72008342 0 0 Z " fill="#000000" transform="translate(308,183)"/>
<path d="M0 0 C2.77262674 1.70623184 3.71852362 2.95423707 4.5625 6.08984375 C5.16848127 9.88353899 5.26818888 12.33658541 3.8125 15.9375 C0.85134297 19.30709248 -0.95374105 19.90488555 -5.4375 20.3125 C-9.25656107 19.97749464 -11.02926723 19.37658622 -14 17 C-16.57189679 13.57080428 -16.502142 10.16060514 -16 6 C-12.10007268 -0.71987477 -7.30717899 -1.84152696 0 0 Z " fill="#000000" transform="translate(183,315)"/>
</svg>
